<?xml version="1.0" encoding="UTF-8"?><svg xmlns="http://www.w3.org/2000/svg" xmlns:xlink="http://www.w3.org/1999/xlink" height="93.0" id="Camada_1" preserveAspectRatio="xMidYMid meet" version="1.1" viewBox="-2.3 -3.1 87.9 93.0" width="87.9" x="0" xml:space="preserve" y="0" zoomAndPan="magnify"><g><g id="change1_1"><path d="M67.2,1.7c-10.9,14-21.8,28.1-32.7,42.1C29.2,50.5,23.9,57.2,18.6,64c-2.7,3.5-5.3,7.1-7.9,10.8 c-2.4,3.3-5,6.5-4.9,10.8c0.1,2.5,2.4,4.3,4.8,3.7c4.1-1,6.5-4.3,9.1-7.5c2.8-3.5,5.6-6.9,8.3-10.5c5.1-6.8,10.2-13.7,15.4-20.6 C54.1,36.5,64.8,22.3,75.5,8.1C79.1,3.3,70.9-3.1,67.2,1.7L67.2,1.7z" fill="#ff0d17"/></g><g id="change1_2"><path d="M1.2,8.9c12.6,12.6,25.5,25,37.7,38C45,53.3,51,59.6,57.1,66c2.9,3.1,5.8,6.1,8.7,9.3c3.2,3.5,6,7.3,10.1,9.8 c3.8,2.3,9.7-1.6,8-6.1c-3.1-7.9-10.4-14.7-15.9-21.2c-6.1-7.2-12.5-13.9-19.3-20.5C35.3,24.5,21.7,12.5,6.7,1.8 C2.4-1.2-2.3,5.4,1.2,8.9L1.2,8.9z" fill="#ff0d17"/></g></g></svg>